<svg width="24" height="24" viewBox="0 0 24 24" fill="none" xmlns="http://www.w3.org/2000/svg">
<path fill-rule="evenodd" clip-rule="evenodd" d="M12.001 16.5411C11.587 16.5411 11.251 16.2051 11.251 15.7911V3.75012C11.251 3.33612 11.587 3.00012 12.001 3.00012C12.415 3.00012 12.751 3.33612 12.751 3.75012V15.7911C12.751 16.2051 12.415 16.5411 12.001 16.5411Z" fill="#FF5F01"/>
<path fill-rule="evenodd" clip-rule="evenodd" d="M12.001 16.5412C11.802 16.5412 11.61 16.4622 11.47 16.3202L8.554 13.3932C8.262 13.0992 8.263 12.6242 8.556 12.3322C8.85 12.0402 9.324 12.0402 9.616 12.3342L12.001 14.7292L14.386 12.3342C14.678 12.0402 15.152 12.0402 15.446 12.3322C15.739 12.6242 15.74 13.0992 15.448 13.3932L12.532 16.3202C12.392 16.4622 12.2 16.5412 12.001 16.5412Z" fill="#FF5F01"/>
<mask id="mask0" mask-type="alpha" maskUnits="userSpaceOnUse" x="2" y="7" width="20" height="15">
<path fill-rule="evenodd" clip-rule="evenodd" d="M2.0002 7.73267H22V21.4767H2.0002V7.73267Z" fill="white"/>
</mask>
<g mask="url(#mask0)">
<path fill-rule="evenodd" clip-rule="evenodd" d="M17.5752 21.4767H6.4352C3.9902 21.4767 2.0002 19.4877 2.0002 17.0417V12.1567C2.0002 9.71667 3.9852 7.73267 6.4262 7.73267H7.3672C7.7812 7.73267 8.1172 8.06867 8.1172 8.48267C8.1172 8.89667 7.7812 9.23267 7.3672 9.23267H6.4262C4.8122 9.23267 3.5002 10.5437 3.5002 12.1567V17.0417C3.5002 18.6607 4.8162 19.9767 6.4352 19.9767H17.5752C19.1872 19.9767 20.5002 18.6637 20.5002 17.0517V12.1677C20.5002 10.5487 19.1832 9.23267 17.5662 9.23267H16.6342C16.2202 9.23267 15.8842 8.89667 15.8842 8.48267C15.8842 8.06867 16.2202 7.73267 16.6342 7.73267H17.5662C20.0112 7.73267 22.0002 9.72267 22.0002 12.1677V17.0517C22.0002 19.4917 20.0142 21.4767 17.5752 21.4767Z" fill="#FF5F01"/>
</g>
</svg>
